<mxfile modified="2023-05-05T13:04:36.185Z" host="app.diagrams.net" agent="Mozilla/5.0 (Windows NT 10.0; Win64; x64) AppleWebKit/537.36 (KHTML, like Gecko) Chrome/112.0.0.0 Safari/537.36" etag="xL7PQxKx6pcwQOEy30cf" version="21.2.9" type="github">
  <diagram id="Ht1M8jgEwFfnCIfOTk4-" name="Page-1">
    <mxGraphModel dx="1434" dy="764" grid="1" gridSize="10" guides="1" tooltips="1" connect="1" arrows="1" fold="1" page="1" pageScale="1" pageWidth="1169" pageHeight="827" math="0" shadow="0">
      <root>
        <mxCell id="0" />
        <mxCell id="1" parent="0" />
        <mxCell id="IYI-xF9ZglQ2vYf5pUIB-1" style="rounded=0;orthogonalLoop=1;jettySize=auto;html=1;startArrow=open;startFill=0;endArrow=open;endFill=0;strokeWidth=2;strokeColor=#808080;entryX=0;entryY=0.5;entryDx=0;entryDy=0;" edge="1" parent="1" source="IYI-xF9ZglQ2vYf5pUIB-3" target="IYI-xF9ZglQ2vYf5pUIB-4">
          <mxGeometry relative="1" as="geometry">
            <mxPoint x="658.499112850026" y="372" as="sourcePoint" />
          </mxGeometry>
        </mxCell>
        <mxCell id="IYI-xF9ZglQ2vYf5pUIB-2" value="Amazon&lt;br&gt;DynamoDB&lt;br&gt;" style="outlineConnect=0;fontColor=#232F3E;gradientColor=#4D72F3;gradientDirection=north;fillColor=#3334B9;strokeColor=#ffffff;dashed=0;verticalLabelPosition=bottom;verticalAlign=top;align=center;html=1;fontSize=12;fontStyle=0;aspect=fixed;shape=mxgraph.aws4.resourceIcon;resIcon=mxgraph.aws4.dynamodb;labelBackgroundColor=#ffffff;spacingTop=5;" vertex="1" parent="1">
          <mxGeometry x="680.0000000000002" y="305" width="78" height="78" as="geometry" />
        </mxCell>
        <mxCell id="IYI-xF9ZglQ2vYf5pUIB-3" value="" style="sketch=0;outlineConnect=0;gradientColor=none;fontColor=#545B64;strokeColor=none;fillColor=#879196;dashed=0;verticalLabelPosition=bottom;verticalAlign=top;align=center;html=1;fontSize=12;fontStyle=0;aspect=fixed;shape=mxgraph.aws4.illustration_devices;pointerEvents=1" vertex="1" parent="1">
          <mxGeometry x="110" y="310" width="100" height="73" as="geometry" />
        </mxCell>
        <mxCell id="IYI-xF9ZglQ2vYf5pUIB-4" value="微信小程序" style="points=[[0,0],[0.25,0],[0.5,0],[0.75,0],[1,0],[1,0.25],[1,0.5],[1,0.75],[1,1],[0.75,1],[0.5,1],[0.25,1],[0,1],[0,0.75],[0,0.5],[0,0.25]];outlineConnect=0;gradientColor=none;html=1;whiteSpace=wrap;fontSize=12;fontStyle=0;container=1;pointerEvents=0;collapsible=0;recursiveResize=0;shape=mxgraph.aws4.group;grIcon=mxgraph.aws4.group_aws_cloud;strokeColor=#009900;fillColor=none;verticalAlign=top;align=left;spacingLeft=30;fontColor=#232F3E;dashed=0;" vertex="1" parent="1">
          <mxGeometry x="280" y="280" width="130" height="130" as="geometry" />
        </mxCell>
        <mxCell id="IYI-xF9ZglQ2vYf5pUIB-5" value="" style="sketch=0;outlineConnect=0;fontColor=#232F3E;gradientColor=none;fillColor=#232F3D;strokeColor=none;dashed=0;verticalLabelPosition=bottom;verticalAlign=top;align=center;html=1;fontSize=12;fontStyle=0;aspect=fixed;pointerEvents=1;shape=mxgraph.aws4.servers;" vertex="1" parent="IYI-xF9ZglQ2vYf5pUIB-4">
          <mxGeometry x="26" y="40" width="78" height="78" as="geometry" />
        </mxCell>
        <mxCell id="IYI-xF9ZglQ2vYf5pUIB-6" value="Nginx HTTPS" style="fillColor=none;strokeColor=#DD3522;verticalAlign=top;fontStyle=0;fontColor=#DD3522;whiteSpace=wrap;html=1;dashed=1;" vertex="1" parent="1">
          <mxGeometry x="460" y="170" width="170" height="340" as="geometry" />
        </mxCell>
        <mxCell id="IYI-xF9ZglQ2vYf5pUIB-7" value="阿里云 ECS" style="points=[[0,0],[0.25,0],[0.5,0],[0.75,0],[1,0],[1,0.25],[1,0.5],[1,0.75],[1,1],[0.75,1],[0.5,1],[0.25,1],[0,1],[0,0.75],[0,0.5],[0,0.25]];outlineConnect=0;gradientColor=none;html=1;whiteSpace=wrap;fontSize=12;fontStyle=0;container=1;pointerEvents=0;collapsible=0;recursiveResize=0;shape=mxgraph.aws4.group;grIcon=mxgraph.aws4.group_ec2_instance_contents;strokeColor=#D86613;fillColor=none;verticalAlign=top;align=left;spacingLeft=30;fontColor=#D86613;dashed=0;" vertex="1" parent="1">
          <mxGeometry x="480" y="200" width="130" height="130" as="geometry" />
        </mxCell>
        <mxCell id="IYI-xF9ZglQ2vYf5pUIB-8" value="" style="sketch=0;outlineConnect=0;fontColor=#232F3E;gradientColor=none;fillColor=#232F3D;strokeColor=none;dashed=0;verticalLabelPosition=bottom;verticalAlign=top;align=center;html=1;fontSize=12;fontStyle=0;aspect=fixed;pointerEvents=1;shape=mxgraph.aws4.servers;" vertex="1" parent="IYI-xF9ZglQ2vYf5pUIB-7">
          <mxGeometry x="26" y="42" width="78" height="78" as="geometry" />
        </mxCell>
        <mxCell id="IYI-xF9ZglQ2vYf5pUIB-9" style="rounded=0;orthogonalLoop=1;jettySize=auto;html=1;startArrow=open;startFill=0;endArrow=open;endFill=0;strokeWidth=2;strokeColor=#808080;entryX=0;entryY=0.5;entryDx=0;entryDy=0;exitX=1;exitY=0.5;exitDx=0;exitDy=0;edgeStyle=orthogonalEdgeStyle;" edge="1" parent="1" source="IYI-xF9ZglQ2vYf5pUIB-4" target="IYI-xF9ZglQ2vYf5pUIB-7">
          <mxGeometry relative="1" as="geometry">
            <mxPoint x="200" y="356" as="sourcePoint" />
            <mxPoint x="290" y="355" as="targetPoint" />
          </mxGeometry>
        </mxCell>
        <mxCell id="IYI-xF9ZglQ2vYf5pUIB-10" value="AWS EC2" style="points=[[0,0],[0.25,0],[0.5,0],[0.75,0],[1,0],[1,0.25],[1,0.5],[1,0.75],[1,1],[0.75,1],[0.5,1],[0.25,1],[0,1],[0,0.75],[0,0.5],[0,0.25]];outlineConnect=0;gradientColor=none;html=1;whiteSpace=wrap;fontSize=12;fontStyle=0;container=1;pointerEvents=0;collapsible=0;recursiveResize=0;shape=mxgraph.aws4.group;grIcon=mxgraph.aws4.group_ec2_instance_contents;strokeColor=#D86613;fillColor=none;verticalAlign=top;align=left;spacingLeft=30;fontColor=#D86613;dashed=0;" vertex="1" parent="1">
          <mxGeometry x="480" y="360" width="130" height="130" as="geometry" />
        </mxCell>
        <mxCell id="IYI-xF9ZglQ2vYf5pUIB-11" value="" style="sketch=0;outlineConnect=0;fontColor=#232F3E;gradientColor=none;fillColor=#232F3D;strokeColor=none;dashed=0;verticalLabelPosition=bottom;verticalAlign=top;align=center;html=1;fontSize=12;fontStyle=0;aspect=fixed;pointerEvents=1;shape=mxgraph.aws4.servers;" vertex="1" parent="IYI-xF9ZglQ2vYf5pUIB-10">
          <mxGeometry x="26" y="42" width="78" height="78" as="geometry" />
        </mxCell>
        <mxCell id="IYI-xF9ZglQ2vYf5pUIB-12" style="rounded=0;orthogonalLoop=1;jettySize=auto;html=1;startArrow=open;startFill=0;endArrow=open;endFill=0;strokeWidth=2;strokeColor=#808080;entryX=0;entryY=0.5;entryDx=0;entryDy=0;exitX=1;exitY=0.5;exitDx=0;exitDy=0;edgeStyle=orthogonalEdgeStyle;" edge="1" parent="1" source="IYI-xF9ZglQ2vYf5pUIB-4" target="IYI-xF9ZglQ2vYf5pUIB-10">
          <mxGeometry relative="1" as="geometry">
            <mxPoint x="420" y="355" as="sourcePoint" />
            <mxPoint x="475" y="275" as="targetPoint" />
          </mxGeometry>
        </mxCell>
        <mxCell id="IYI-xF9ZglQ2vYf5pUIB-13" style="rounded=0;orthogonalLoop=1;jettySize=auto;html=1;startArrow=open;startFill=0;endArrow=open;endFill=0;strokeWidth=2;strokeColor=#808080;exitX=1;exitY=0.5;exitDx=0;exitDy=0;edgeStyle=orthogonalEdgeStyle;" edge="1" parent="1" source="IYI-xF9ZglQ2vYf5pUIB-7" target="IYI-xF9ZglQ2vYf5pUIB-2">
          <mxGeometry relative="1" as="geometry">
            <mxPoint x="640" y="280" as="sourcePoint" />
            <mxPoint x="710" y="200" as="targetPoint" />
          </mxGeometry>
        </mxCell>
        <mxCell id="IYI-xF9ZglQ2vYf5pUIB-14" style="rounded=0;orthogonalLoop=1;jettySize=auto;html=1;startArrow=open;startFill=0;endArrow=open;endFill=0;strokeWidth=2;strokeColor=#808080;exitX=1;exitY=0.5;exitDx=0;exitDy=0;edgeStyle=orthogonalEdgeStyle;" edge="1" parent="1" source="IYI-xF9ZglQ2vYf5pUIB-10" target="IYI-xF9ZglQ2vYf5pUIB-2">
          <mxGeometry relative="1" as="geometry">
            <mxPoint x="630" y="430" as="sourcePoint" />
            <mxPoint x="700" y="509" as="targetPoint" />
          </mxGeometry>
        </mxCell>
        <mxCell id="IYI-xF9ZglQ2vYf5pUIB-15" value="ChatGPT API" style="sketch=0;points=[[0,0,0],[0.25,0,0],[0.5,0,0],[0.75,0,0],[1,0,0],[0,1,0],[0.25,1,0],[0.5,1,0],[0.75,1,0],[1,1,0],[0,0.25,0],[0,0.5,0],[0,0.75,0],[1,0.25,0],[1,0.5,0],[1,0.75,0]];outlineConnect=0;fontColor=#232F3E;gradientColor=#4D72F3;gradientDirection=north;fillColor=#3334B9;strokeColor=#ffffff;dashed=0;verticalLabelPosition=bottom;verticalAlign=top;align=center;html=1;fontSize=12;fontStyle=0;aspect=fixed;shape=mxgraph.aws4.resourceIcon;resIcon=mxgraph.aws4.cloud_control_api;" vertex="1" parent="1">
          <mxGeometry x="506" y="530" width="78" height="78" as="geometry" />
        </mxCell>
        <mxCell id="IYI-xF9ZglQ2vYf5pUIB-16" style="rounded=0;orthogonalLoop=1;jettySize=auto;html=1;startArrow=open;startFill=0;endArrow=open;endFill=0;strokeWidth=2;strokeColor=#808080;entryX=0.5;entryY=0;entryDx=0;entryDy=0;entryPerimeter=0;" edge="1" parent="1" source="IYI-xF9ZglQ2vYf5pUIB-10" target="IYI-xF9ZglQ2vYf5pUIB-15">
          <mxGeometry relative="1" as="geometry">
            <mxPoint x="620" y="435" as="sourcePoint" />
            <mxPoint x="690" y="354" as="targetPoint" />
          </mxGeometry>
        </mxCell>
      </root>
    </mxGraphModel>
  </diagram>
</mxfile>
